<?xml version="1.0" standalone="no"?>
<!DOCTYPE svg PUBLIC "-//W3C//DTD SVG 20010904//EN"
 "http://www.w3.org/TR/2001/REC-SVG-20010904/DTD/svg10.dtd">
<svg version="1.0" xmlns="http://www.w3.org/2000/svg"
 width="300.000000pt" height="300.000000pt" viewBox="0 0 300.000000 300.000000"
 preserveAspectRatio="xMidYMid meet">
<metadata>
Created by potrace 1.11, written by Peter Selinger 2001-2013
</metadata>
<g transform="translate(0.000000,300.000000) scale(0.100000,-0.100000)"
fill="#000000" stroke="none">
<path d="M1355 2785 c-17 -13 -34 -24 -38 -25 -5 0 -28 -13 -52 -30 -24 -16
-46 -30 -49 -30 -5 0 -108 -62 -116 -70 -25 -25 -48 -27 -83 -7 -20 12 -72 43
-116 70 l-80 47 -111 -66 c-60 -37 -110 -70 -110 -74 0 -4 50 -37 110 -74
l111 -68 72 44 c40 23 76 45 82 47 5 2 21 12 34 22 29 23 64 24 81 4 7 -8 18
-15 25 -15 7 0 18 -6 24 -14 7 -8 28 -22 47 -31 33 -16 34 -18 17 -29 -16 -11
-116 -72 -193 -118 -45 -26 -543 -329 -569 -345 l-23 -15 21 -11 c11 -7 87
-52 168 -102 82 -49 242 -147 358 -217 116 -70 215 -132 222 -138 7 -5 15 -10
18 -10 3 0 22 -11 41 -24 l36 -24 -69 -38 c-37 -20 -94 -52 -126 -71 -32 -18
-61 -33 -63 -33 -3 0 -18 -8 -32 -18 -15 -11 -63 -38 -107 -62 -44 -23 -84
-46 -90 -50 -5 -4 -35 -21 -65 -37 -201 -110 -286 -158 -292 -168 -4 -5 -8 -6
-8 -2 0 5 -13 -1 -29 -12 -15 -11 -41 -25 -56 -31 -16 -6 -24 -14 -19 -19 8
-7 636 -392 678 -415 11 -6 25 -15 30 -19 12 -8 248 -154 356 -219 36 -22 87
-53 114 -69 39 -24 54 -29 71 -21 18 8 134 78 605 365 63 38 133 81 155 96 22
14 42 26 45 26 6 1 71 41 85 52 6 4 21 14 35 21 14 6 61 34 105 62 l80 49 0
577 c0 486 -2 577 -14 582 -8 3 -79 45 -159 94 -79 48 -148 88 -152 88 -5 0
-10 3 -12 8 -1 4 -82 54 -178 112 -253 151 -493 298 -505 308 -5 4 -17 11 -25
15 -8 4 -33 18 -55 32 -22 14 -47 28 -55 32 -8 4 -34 20 -56 35 -23 15 -45 28
-50 28 -4 0 -15 7 -24 15 -14 13 -19 11 -45 -10z"/>
</g>
</svg>
